# xmcd
#
# Track frame offsets: 
#        150
#        15793
#        28637
#        42213
#        55544
#        69729
#        82335
#        97765
#        113493
#        128862
#        143298
#
# Disc length: 2085 seconds
#
# Revision: 0
# Processed by: cddbd v1.5.2PL0 Copyright (c) Steve Scherf et al.
# Submitted via: ExactAudioCopy v0.99pb3
#
DISCID=7b08230b
DTITLE=Seals, Brady - Play Time
DYEAR=2009
DGENRE=Country
TTITLE0=Eeny Meny Mine Moe
TTITLE1=Ho Down
TTITLE2=Been There, Drunk That
TTITLE3=Trucker Song
TTITLE4=Better Every Beer
TTITLE5=Farm Boy
TTITLE6=Askin' Questions
TTITLE7=Everybody Smokes In Hell
TTITLE8=You'll Come Running
TTITLE9=Bubba's Pimpin' Ride
TTITLE10=Farmer Brown
EXTD=
EXTT0=
EXTT1=
EXTT2=
EXTT3=
EXTT4=
EXTT5=
EXTT6=
EXTT7=
EXTT8=
EXTT9=
EXTT10=
PLAYORDER=
